# xmcd
#
# Track frame offsets: 
#        150
#        14977
#        34029
#        59027
#        75617
#        98270
#        117694
#        153578
#        171746
#        194027
#
# Disc length: 2749 seconds
#
# Revision: 0
# Processed by: cddbd v1.5.2PL0 Copyright (c) Steve Scherf et al.
# Submitted via: ExactAudioCopy v1.0b4
#
DISCID=920abb0a
DTITLE=Kat Riggins - Blues Revival
DYEAR=2016
DGENRE=Blues
TTITLE0=Now I See (Ooh Wee)
TTITLE1=Good Girl Blues
TTITLE2=Wail Away
TTITLE3=Queen Bee
TTITLE4=Murphy's Law
TTITLE5=Music Fiend
TTITLE6=Change Is Gonna Come
TTITLE7=Blues Is My Business
TTITLE8=The Devil Is a Liar
TTITLE9=Blues Is the New Black
EXTD=
EXTT0=
EXTT1=
EXTT2=
EXTT3=
EXTT4=
EXTT5=
EXTT6=
EXTT7=
EXTT8=
EXTT9=
PLAYORDER=
